<svg id="visual" viewBox="0 0 900 450" width="900" height="450" xmlns="http://www.w3.org/2000/svg" xmlns:xlink="http://www.w3.org/1999/xlink" version="1.1"><rect x="0" y="0" width="900" height="450" fill="#001220"></rect><path d="M0 160L21.5 168C43 176 86 192 128.8 203.2C171.7 214.3 214.3 220.7 257.2 213C300 205.3 343 183.7 385.8 166.8C428.7 150 471.3 138 514.2 135.2C557 132.3 600 138.7 642.8 145.2C685.7 151.7 728.3 158.3 771.2 160C814 161.7 857 158.3 878.5 156.7L900 155L900 451L878.5 451C857 451 814 451 771.2 451C728.3 451 685.7 451 642.8 451C600 451 557 451 514.2 451C471.3 451 428.7 451 385.8 451C343 451 300 451 257.2 451C214.3 451 171.7 451 128.8 451C86 451 43 451 21.5 451L0 451Z" fill="#4facf7"></path><path d="M0 255L21.5 252.3C43 249.7 86 244.3 128.8 232.3C171.7 220.3 214.3 201.7 257.2 207C300 212.3 343 241.7 385.8 253.8C428.7 266 471.3 261 514.2 251C557 241 600 226 642.8 218.7C685.7 211.3 728.3 211.7 771.2 218C814 224.3 857 236.7 878.5 242.8L900 249L900 451L878.5 451C857 451 814 451 771.2 451C728.3 451 685.7 451 642.8 451C600 451 557 451 514.2 451C471.3 451 428.7 451 385.8 451C343 451 300 451 257.2 451C214.3 451 171.7 451 128.8 451C86 451 43 451 21.5 451L0 451Z" fill="#0babdf"></path><path d="M0 308L21.5 303.2C43 298.3 86 288.7 128.8 287.3C171.7 286 214.3 293 257.2 293C300 293 343 286 385.8 275.3C428.7 264.7 471.3 250.3 514.2 242.5C557 234.7 600 233.3 642.8 234.8C685.7 236.3 728.3 240.7 771.2 248.5C814 256.3 857 267.7 878.5 273.3L900 279L900 451L878.5 451C857 451 814 451 771.2 451C728.3 451 685.7 451 642.8 451C600 451 557 451 514.2 451C471.3 451 428.7 451 385.8 451C343 451 300 451 257.2 451C214.3 451 171.7 451 128.8 451C86 451 43 451 21.5 451L0 451Z" fill="#00a6c1"></path><path d="M0 340L21.5 342C43 344 86 348 128.8 347C171.7 346 214.3 340 257.2 337.7C300 335.3 343 336.7 385.8 339.7C428.7 342.7 471.3 347.3 514.2 344.3C557 341.3 600 330.7 642.8 331.3C685.7 332 728.3 344 771.2 344.3C814 344.7 857 333.3 878.5 327.7L900 322L900 451L878.5 451C857 451 814 451 771.2 451C728.3 451 685.7 451 642.8 451C600 451 557 451 514.2 451C471.3 451 428.7 451 385.8 451C343 451 300 451 257.2 451C214.3 451 171.7 451 128.8 451C86 451 43 451 21.5 451L0 451Z" fill="#009f9e"></path><path d="M0 373L21.5 372.7C43 372.3 86 371.7 128.8 376.3C171.7 381 214.3 391 257.2 397.5C300 404 343 407 385.8 406C428.7 405 471.3 400 514.2 394.5C557 389 600 383 642.8 378.2C685.7 373.3 728.3 369.7 771.2 375.2C814 380.7 857 395.3 878.5 402.7L900 410L900 451L878.5 451C857 451 814 451 771.2 451C728.3 451 685.7 451 642.8 451C600 451 557 451 514.2 451C471.3 451 428.7 451 385.8 451C343 451 300 451 257.2 451C214.3 451 171.7 451 128.8 451C86 451 43 451 21.5 451L0 451Z" fill="#009473"></path></svg>