<svg id="visual" viewBox="0 0 960 540" width="960" height="540" xmlns="http://www.w3.org/2000/svg" xmlns:xlink="http://www.w3.org/1999/xlink" version="1.1"><rect x="0" y="0" width="960" height="540" fill="#001122"></rect><path d="M438 0L383 0L383 68L468 68L468 135L382 135L382 203L427 203L427 270L452 270L452 338L378 338L378 405L412 405L412 473L441 473L441 540L0 540L0 473L0 473L0 405L0 405L0 338L0 338L0 270L0 270L0 203L0 203L0 135L0 135L0 68L0 68L0 0L0 0Z" fill="#009473"></path><path d="M359 0L352 0L352 68L365 68L365 135L361 135L361 203L303 203L303 270L358 270L358 338L323 338L323 405L321 405L321 473L325 473L325 540L0 540L0 473L0 473L0 405L0 405L0 338L0 338L0 270L0 270L0 203L0 203L0 135L0 135L0 68L0 68L0 0L0 0Z" fill="#009f9e"></path><path d="M273 0L279 0L279 68L266 68L266 135L274 135L274 203L297 203L297 270L276 270L276 338L280 338L280 405L240 405L240 473L240 473L240 540L0 540L0 473L0 473L0 405L0 405L0 338L0 338L0 270L0 270L0 203L0 203L0 135L0 135L0 68L0 68L0 0L0 0Z" fill="#00a6c1"></path><path d="M196 0L189 0L189 68L205 68L205 135L209 135L209 203L163 203L163 270L188 270L188 338L207 338L207 405L200 405L200 473L209 473L209 540L0 540L0 473L0 473L0 405L0 405L0 338L0 338L0 270L0 270L0 203L0 203L0 135L0 135L0 68L0 68L0 0L0 0Z" fill="#0babdf"></path><path d="M88 0L82 0L82 68L82 68L82 135L100 135L100 203L81 203L81 270L112 270L112 338L125 338L125 405L99 405L99 473L76 473L76 540L0 540L0 473L0 473L0 405L0 405L0 338L0 338L0 270L0 270L0 203L0 203L0 135L0 135L0 68L0 68L0 0L0 0Z" fill="#4facf7"></path></svg>